<svg data-v-fde0c5aa="" xmlns="http://www.w3.org/2000/svg" viewBox="0 0 300 300" class="iconAbove"><!----><defs data-v-fde0c5aa=""><!----></defs><rect data-v-fde0c5aa="" fill="transparent" x="0" y="0" width="300px" height="300px" class="logo-background-square"></rect><defs data-v-fde0c5aa=""><!----></defs><g data-v-fde0c5aa="" id="8c15cebc-693d-469f-a035-e17ceadd8ab1" fill="#000000" transform="matrix(3.8632984875207823,0,0,3.8632984875207823,17.295691104789558,163.92308638242696)"><path d="M4.05 13.52L0.70 13.52L0.70 5.38L0.70 5.38Q0.71 3.92 2.04 3.72L2.04 3.72L3.96 3.72L3.96 3.72Q4.68 3.72 5.24 4.00L5.24 4.00L5.24 4.00Q5.81 4.28 6.20 4.77L6.20 4.77L6.20 4.77Q6.51 5.15 6.64 5.62L6.64 5.62L6.64 5.62Q6.78 6.09 6.72 6.55L6.72 6.55L6.72 6.55Q6.66 7.01 6.42 7.43L6.42 7.43L6.42 7.43Q6.17 7.85 5.73 8.15L5.73 8.15L5.73 8.15Q6.30 8.37 6.69 8.76L6.69 8.76L6.69 8.76Q7.07 9.16 7.27 9.63L7.27 9.63L7.27 9.63Q7.46 10.11 7.47 10.63L7.47 10.63L7.47 10.63Q7.48 11.14 7.30 11.63L7.30 11.63L7.30 11.63Q7.13 12.11 6.78 12.52L6.78 12.52L6.78 12.52Q6.43 12.94 5.91 13.19L5.91 13.19L5.91 13.19Q5.24 13.52 4.05 13.52L4.05 13.52ZM2.55 5.52L2.55 5.52L2.55 11.76L2.55 11.76Q2.77 11.76 3.05 11.77L3.05 11.77L3.05 11.77Q3.33 11.77 3.63 11.77L3.63 11.77L3.63 11.77Q3.92 11.77 4.20 11.75L4.20 11.75L4.20 11.75Q4.48 11.73 4.69 11.66L4.69 11.66L4.69 11.66Q5.22 11.52 5.45 11.18L5.45 11.18L5.45 11.18Q5.67 10.84 5.62 10.46L5.62 10.46L5.62 10.46Q5.57 10.08 5.28 9.74L5.28 9.74L5.28 9.74Q4.98 9.41 4.48 9.30L4.48 9.30L4.48 9.30Q4.33 9.27 4.10 9.25L4.10 9.25L4.10 9.25Q3.88 9.23 3.63 9.25L3.63 9.25L3.63 9.25Q3.39 9.27 3.18 9.34L3.18 9.34L3.18 9.34Q2.97 9.41 2.87 9.58L2.87 9.58L2.87 9.58Q2.70 9.18 2.67 8.86L2.67 8.86L2.67 8.86Q2.63 8.53 2.77 8.26L2.77 8.26L2.77 8.26Q2.90 7.99 3.23 7.81L3.23 7.81L3.23 7.81Q3.56 7.63 4.12 7.52L4.12 7.52L4.12 7.52Q4.47 7.45 4.70 7.17L4.70 7.17L4.70 7.17Q4.93 6.89 4.93 6.51L4.93 6.51L4.93 6.51Q4.93 6.10 4.66 5.87L4.66 5.87L4.66 5.87Q4.38 5.63 4.03 5.56L4.03 5.56L4.03 5.56Q3.88 5.53 3.68 5.52L3.68 5.52L3.68 5.52Q3.47 5.50 3.27 5.50L3.27 5.50L3.27 5.50Q3.07 5.50 2.87 5.51L2.87 5.51L2.87 5.51Q2.67 5.52 2.55 5.52ZM8.88 6.29L10.71 6.29L10.71 9.76L10.71 9.76Q10.71 10.01 10.72 10.30L10.72 10.30L10.72 10.30Q10.72 10.58 10.77 10.86L10.77 10.86L10.77 10.86Q10.82 11.13 10.94 11.37L10.94 11.37L10.94 11.37Q11.06 11.61 11.30 11.77L11.30 11.77L11.30 11.77Q11.45 11.89 11.66 11.94L11.66 11.94L11.66 11.94Q11.86 12.00 12.07 12.00L12.07 12.00L12.07 12.00Q12.28 12.00 12.47 11.94L12.47 11.94L12.47 11.94Q12.67 11.89 12.84 11.77L12.84 11.77L12.84 11.77Q13.08 11.62 13.20 11.39L13.20 11.39L13.20 11.39Q13.31 11.16 13.36 10.89L13.36 10.89L13.36 10.89Q13.41 10.63 13.41 10.35L13.41 10.35L13.41 10.35Q13.41 10.07 13.41 9.81L13.41 9.81L13.41 7.73L13.41 7.73Q13.40 6.97 13.90 6.60L13.90 6.60L13.90 6.60Q14.41 6.23 15.22 6.26L15.22 6.26L15.22 9.34L15.22 9.34Q15.23 10.29 15.16 10.93L15.16 10.93L15.16 10.93Q15.08 11.56 14.92 11.93L14.92 11.93L14.92 11.93Q14.52 12.87 13.78 13.27L13.78 13.27L13.78 13.27Q13.03 13.68 12.04 13.68L12.04 13.68L12.04 13.68Q10.96 13.68 10.19 13.20L10.19 13.20L10.19 13.20Q9.42 12.73 9.09 11.68L9.09 11.68L9.09 11.68Q8.99 11.35 8.93 10.80L8.93 10.80L8.93 10.80Q8.88 10.25 8.88 9.59L8.88 9.59L8.88 6.29ZM18.40 12.75L18.40 13.52L16.63 13.52L16.63 5.17L16.63 5.17Q16.63 4.59 17.10 4.17L17.10 4.17L17.10 4.17Q17.57 3.75 18.40 3.72L18.40 3.72L18.40 9.37L18.40 9.37Q18.40 9.84 18.49 10.33L18.49 10.33L18.49 10.33Q18.58 10.81 18.79 11.20L18.79 11.20L18.79 11.20Q19.00 11.59 19.36 11.84L19.36 11.84L19.36 11.84Q19.73 12.08 20.27 12.08L20.27 12.08L20.27 12.08Q20.92 12.08 21.34 11.77L21.34 11.77L21.34 11.77Q21.77 11.47 21.98 11.00L21.98 11.00L21.98 11.00Q22.19 10.54 22.18 10.00L22.18 10.00L22.18 10.00Q22.18 9.45 21.96 8.99L21.96 8.99L21.96 8.99Q21.74 8.53 21.32 8.22L21.32 8.22L21.32 8.22Q20.89 7.91 20.26 7.91L20.26 7.91L20.26 7.91Q19.88 7.91 19.45 8.03L19.45 8.03L19.45 8.03Q19.03 8.15 18.79 8.48L18.79 8.48L18.79 8.48Q18.66 8.26 18.66 7.90L18.66 7.90L18.66 7.90Q18.65 7.53 18.83 7.18L18.83 7.18L18.83 7.18Q19.01 6.83 19.40 6.57L19.40 6.57L19.40 6.57Q19.80 6.30 20.50 6.27L20.50 6.27L20.50 6.27Q21.17 6.26 21.79 6.52L21.79 6.52L21.79 6.52Q22.41 6.79 22.90 7.28L22.90 7.28L22.90 7.28Q23.38 7.77 23.67 8.46L23.67 8.46L23.67 8.46Q23.95 9.16 23.95 9.98L23.95 9.98L23.95 9.98Q23.95 10.84 23.69 11.52L23.69 11.52L23.69 11.52Q23.42 12.19 22.97 12.67L22.97 12.67L22.97 12.67Q22.53 13.15 21.95 13.41L21.95 13.41L21.95 13.41Q21.38 13.68 20.76 13.70L20.76 13.70L20.76 13.70Q20.15 13.72 19.53 13.50L19.53 13.50L19.53 13.50Q18.91 13.27 18.40 12.75L18.40 12.75ZM26.98 12.75L26.98 13.52L25.21 13.52L25.21 5.17L25.21 5.17Q25.21 4.59 25.68 4.17L25.68 4.17L25.68 4.17Q26.15 3.75 26.98 3.72L26.98 3.72L26.98 9.37L26.98 9.37Q26.98 9.84 27.07 10.33L27.07 10.33L27.07 10.33Q27.16 10.81 27.37 11.20L27.37 11.20L27.37 11.20Q27.58 11.59 27.94 11.84L27.94 11.84L27.94 11.84Q28.31 12.08 28.85 12.08L28.85 12.08L28.85 12.08Q29.50 12.08 29.93 11.77L29.93 11.77L29.93 11.77Q30.35 11.47 30.56 11.00L30.56 11.00L30.56 11.00Q30.77 10.54 30.77 10.00L30.77 10.00L30.77 10.00Q30.76 9.45 30.54 8.99L30.54 8.99L30.54 8.99Q30.32 8.53 29.90 8.22L29.90 8.22L29.90 8.22Q29.47 7.91 28.84 7.91L28.84 7.91L28.84 7.91Q28.46 7.91 28.04 8.03L28.04 8.03L28.04 8.03Q27.61 8.15 27.37 8.48L27.37 8.48L27.37 8.48Q27.24 8.26 27.24 7.90L27.24 7.90L27.24 7.90Q27.23 7.53 27.41 7.18L27.41 7.18L27.41 7.18Q27.59 6.83 27.99 6.57L27.99 6.57L27.99 6.57Q28.38 6.30 29.08 6.27L29.08 6.27L29.08 6.27Q29.75 6.26 30.37 6.52L30.37 6.52L30.37 6.52Q31.00 6.79 31.48 7.28L31.48 7.28L31.48 7.28Q31.96 7.77 32.25 8.46L32.25 8.46L32.25 8.46Q32.54 9.16 32.54 9.98L32.54 9.98L32.54 9.98Q32.54 10.84 32.27 11.52L32.27 11.52L32.27 11.52Q32.00 12.19 31.56 12.67L31.56 12.67L31.56 12.67Q31.11 13.15 30.53 13.41L30.53 13.41L30.53 13.41Q29.96 13.68 29.34 13.70L29.34 13.70L29.34 13.70Q28.73 13.72 28.11 13.50L28.11 13.50L28.11 13.50Q27.50 13.27 26.98 12.75L26.98 12.75ZM35.56 3.72L35.56 3.72L35.56 13.52L33.80 13.52L33.80 5.15L33.80 5.15Q33.80 4.48 34.27 4.10L34.27 4.10L34.27 4.10Q34.75 3.71 35.56 3.72ZM41.90 10.72L41.90 10.72L41.90 10.72Q41.15 10.92 40.52 10.86L40.52 10.86L40.52 10.86Q39.90 10.81 39.50 10.56L39.50 10.56L39.50 10.56Q39.10 10.32 38.97 9.91L38.97 9.91L38.97 9.91Q38.84 9.49 39.05 8.97L39.05 8.97L39.05 8.97Q39.48 9.34 40.05 9.37L40.05 9.37L40.05 9.37Q40.63 9.41 41.16 9.35L41.16 9.35L41.16 9.35Q41.61 9.31 41.84 9.16L41.84 9.16L41.84 9.16Q42.07 9.00 42.13 8.80L42.13 8.80L42.13 8.80Q42.18 8.60 42.08 8.37L42.08 8.37L42.08 8.37Q41.99 8.15 41.77 7.97L41.77 7.97L41.77 7.97Q41.55 7.78 41.24 7.67L41.24 7.67L41.24 7.67Q40.92 7.56 40.54 7.57L40.54 7.57L40.54 7.57Q40.14 7.60 39.77 7.77L39.77 7.77L39.77 7.77Q39.41 7.94 39.13 8.23L39.13 8.23L39.13 8.23Q38.85 8.53 38.68 8.92L38.68 8.92L38.68 8.92Q38.51 9.31 38.50 9.79L38.50 9.79L38.50 9.79Q38.49 10.18 38.59 10.56L38.59 10.56L38.59 10.56Q38.70 10.93 38.91 11.25L38.91 11.25L38.91 11.25Q39.12 11.56 39.41 11.78L39.41 11.78L39.41 11.78Q39.70 12.00 40.08 12.05L40.08 12.05L40.08 12.05Q40.61 12.15 41.17 11.98L41.17 11.98L41.17 11.98Q41.73 11.82 42.17 11.37L42.17 11.37L43.64 12.08L43.64 12.08Q43.06 12.94 42.28 13.31L42.28 13.31L42.28 13.31Q41.50 13.68 40.49 13.68L40.49 13.68L40.49 13.68Q39.55 13.68 38.84 13.35L38.84 13.35L38.84 13.35Q38.14 13.02 37.67 12.47L37.67 12.47L37.67 12.47Q37.20 11.93 36.97 11.24L36.97 11.24L36.97 11.24Q36.74 10.54 36.75 9.82L36.75 9.82L36.75 9.82Q36.76 9.10 37.03 8.41L37.03 8.41L37.03 8.41Q37.30 7.71 37.80 7.18L37.80 7.18L37.80 7.18Q38.36 6.58 39.11 6.33L39.11 6.33L39.11 6.33Q39.86 6.08 40.64 6.08L40.64 6.08L40.64 6.08Q41.51 6.08 42.14 6.37L42.14 6.37L42.14 6.37Q42.77 6.66 43.16 7.12L43.16 7.12L43.16 7.12Q43.55 7.57 43.68 8.13L43.68 8.13L43.68 8.13Q43.81 8.68 43.66 9.20L43.66 9.20L43.66 9.20Q43.51 9.72 43.08 10.13L43.08 10.13L43.08 10.13Q42.64 10.54 41.90 10.72ZM48.29 13.52L44.94 13.52L44.94 5.38L44.94 5.38Q44.95 3.92 46.28 3.72L46.28 3.72L48.20 3.72L48.20 3.72Q48.92 3.72 49.48 4.00L49.48 4.00L49.48 4.00Q50.05 4.28 50.44 4.77L50.44 4.77L50.44 4.77Q50.75 5.15 50.88 5.62L50.88 5.62L50.88 5.62Q51.02 6.09 50.96 6.55L50.96 6.55L50.96 6.55Q50.90 7.01 50.66 7.43L50.66 7.43L50.66 7.43Q50.41 7.85 49.97 8.15L49.97 8.15L49.97 8.15Q50.54 8.37 50.93 8.76L50.93 8.76L50.93 8.76Q51.31 9.16 51.51 9.63L51.51 9.63L51.51 9.63Q51.70 10.11 51.71 10.63L51.71 10.63L51.71 10.63Q51.72 11.14 51.54 11.63L51.54 11.63L51.54 11.63Q51.37 12.11 51.02 12.52L51.02 12.52L51.02 12.52Q50.67 12.94 50.15 13.19L50.15 13.19L50.15 13.19Q49.48 13.52 48.29 13.52L48.29 13.52ZM46.79 5.52L46.79 5.52L46.79 11.76L46.79 11.76Q47.01 11.76 47.29 11.77L47.29 11.77L47.29 11.77Q47.57 11.77 47.87 11.77L47.87 11.77L47.87 11.77Q48.16 11.77 48.44 11.75L48.44 11.75L48.44 11.75Q48.72 11.73 48.93 11.66L48.93 11.66L48.93 11.66Q49.46 11.52 49.69 11.18L49.69 11.18L49.69 11.18Q49.91 10.84 49.86 10.46L49.86 10.46L49.86 10.46Q49.81 10.08 49.52 9.74L49.52 9.74L49.52 9.74Q49.22 9.41 48.72 9.30L48.72 9.30L48.72 9.30Q48.57 9.27 48.34 9.25L48.34 9.25L48.34 9.25Q48.12 9.23 47.87 9.25L47.87 9.25L47.87 9.25Q47.63 9.27 47.42 9.34L47.42 9.34L47.42 9.34Q47.21 9.41 47.11 9.58L47.11 9.58L47.11 9.58Q46.94 9.18 46.91 8.86L46.91 8.86L46.91 8.86Q46.87 8.53 47.01 8.26L47.01 8.26L47.01 8.26Q47.14 7.99 47.47 7.81L47.47 7.81L47.47 7.81Q47.80 7.63 48.36 7.52L48.36 7.52L48.36 7.52Q48.71 7.45 48.94 7.17L48.94 7.17L48.94 7.17Q49.17 6.89 49.17 6.51L49.17 6.51L49.17 6.51Q49.17 6.10 48.90 5.87L48.90 5.87L48.90 5.87Q48.62 5.63 48.27 5.56L48.27 5.56L48.27 5.56Q48.12 5.53 47.92 5.52L47.92 5.52L47.92 5.52Q47.71 5.50 47.51 5.50L47.51 5.50L47.51 5.50Q47.31 5.50 47.11 5.51L47.11 5.51L47.11 5.51Q46.91 5.52 46.79 5.52ZM56.63 6.10L56.63 6.10L56.63 6.10Q57.74 6.10 58.60 6.64L58.60 6.64L58.60 6.64Q59.46 7.17 59.95 7.99L59.95 7.99L59.95 7.99Q60.44 8.82 60.47 9.83L60.47 9.83L60.47 9.83Q60.51 10.84 59.96 11.80L59.96 11.80L59.96 11.80Q59.50 12.60 58.76 13.08L58.76 13.08L58.76 13.08Q58.02 13.55 57.18 13.67L57.18 13.67L57.18 13.67Q56.34 13.79 55.49 13.53L55.49 13.53L55.49 13.53Q54.64 13.27 53.97 12.60L53.97 12.60L53.97 12.60Q53.21 11.83 52.96 10.82L52.96 10.82L52.96 10.82Q52.71 9.81 53.00 8.81L53.00 8.81L53.00 8.81Q53.13 8.40 53.42 8.13L53.42 8.13L53.42 8.13Q53.70 7.87 54.07 7.74L54.07 7.74L54.07 7.74Q54.43 7.62 54.82 7.63L54.82 7.63L54.82 7.63Q55.22 7.64 55.55 7.79L55.55 7.79L55.55 7.79Q55.89 7.94 56.12 8.21L56.12 8.21L56.12 8.21Q56.35 8.48 56.39 8.88L56.39 8.88L56.39 8.88Q56.18 8.72 55.89 8.71L55.89 8.71L55.89 8.71Q55.59 8.71 55.32 8.84L55.32 8.84L55.32 8.84Q55.05 8.97 54.86 9.25L54.86 9.25L54.86 9.25Q54.67 9.52 54.67 9.93L54.67 9.93L54.67 9.93Q54.67 10.63 54.96 11.09L54.96 11.09L54.96 11.09Q55.26 11.55 55.70 11.78L55.70 11.78L55.70 11.78Q56.14 12.01 56.65 12.01L56.65 12.01L56.65 12.01Q57.16 12.01 57.60 11.77L57.60 11.77L57.60 11.77Q58.04 11.54 58.34 11.07L58.34 11.07L58.34 11.07Q58.63 10.60 58.63 9.90L58.63 9.90L58.63 9.90Q58.63 9.35 58.44 8.93L58.44 8.93L58.44 8.93Q58.24 8.51 57.91 8.24L57.91 8.24L57.91 8.24Q57.58 7.97 57.15 7.86L57.15 7.86L57.15 7.86Q56.71 7.76 56.22 7.85L56.22 7.85L56.22 7.85Q56.01 7.60 55.71 7.46L55.71 7.46L55.71 7.46Q55.41 7.31 55.06 7.26L55.06 7.26L55.06 7.26Q54.71 7.21 54.36 7.27L54.36 7.27L54.36 7.27Q54.01 7.34 53.70 7.52L53.70 7.52L53.70 7.52Q54.26 6.85 55.01 6.48L55.01 6.48L55.01 6.48Q55.75 6.10 56.63 6.10ZM63.13 9.72L60.63 6.29L62.75 6.29L64.18 8.26L65.14 6.93L65.14 6.93Q65.37 6.61 65.65 6.43L65.65 6.43L65.65 6.43Q65.94 6.26 66.27 6.20L66.27 6.20L66.27 6.20Q66.60 6.13 66.96 6.16L66.96 6.16L66.96 6.16Q67.31 6.19 67.69 6.29L67.69 6.29L65.23 9.69L68.00 13.52L65.88 13.52L64.16 11.16L62.45 13.52L60.37 13.52L63.13 9.72Z"></path></g><defs data-v-fde0c5aa=""><!----></defs><g data-v-fde0c5aa="" id="befd805d-f3f2-415c-af85-05a13480e06c" stroke="none" fill="#000000" transform="matrix(0.8241214779299555,0,0,0.8241214779299555,108.92430941235129,80.35462840662589)"><path d="M67 19.989c.376 0 .75.021 1.111.062 3.413.389 6.84 2.737 9.649 6.609 3.147 4.338 4.833 9.468 4.101 12.475-.559 2.294-2.628 3.714-4.225 3.714-.331 0-.627-.061-.88-.183-1.336-.64-2.48-3.28-3.489-5.609-.451-1.04-.916-2.115-1.424-3.086-1.906-3.646-4.252-5.615-6.736-7.699l-.185-.155c-1.044-.876-3.816-3.204-3.771-4.058.23-.6 2.565-2.07 5.849-2.07m0-2.126c-3.651 0-7.133 1.607-7.834 3.436-.788 2.054 1.932 4.386 4.389 6.448s4.649 3.853 6.404 7.211 3.072 8.282 5.878 9.627a4.15 4.15 0 0 0 1.799.392c2.574 0 5.497-2.082 6.29-5.337.988-4.056-1.33-9.933-4.445-14.227-3.115-4.294-7.026-7.005-11.129-7.473-.45-.052-.903-.077-1.352-.077zM85.402 46.223c.452 0 .694.25.725.897.058 1.245-.667 3.959-2.321 5.249-.966.753-2.248 1.021-3.312 1.021-.758 0-1.404-.136-1.746-.33-.82-.465.124-1.263.395-1.79.271-.528-.132-.786-.564-1.031-.432-.246-.893-.479.07-1.13.963-.65 3.35-1.718 4.963-2.363.776-.31 1.373-.523 1.79-.523m0-1.417c-.635 0-1.304.22-2.316.625-1.386.555-4.047 1.706-5.23 2.504-.305.206-1.232.832-1.191 1.887.027.7.442 1.132.803 1.394-.29.448-.576 1.058-.422 1.77.117.543.473 1.007 1.003 1.308.788.448 1.87.514 2.445.514.93 0 2.71-.172 4.183-1.321 2.083-1.625 2.941-4.799 2.865-6.433-.077-1.66-1.201-2.248-2.14-2.248z"></path><path d="M80.495 55.063c-.6 0-1.731-.071-2.571-.547-.594-.337-.994-.861-1.126-1.476-.124-.572-.013-1.151.336-1.764-.458-.395-.701-.88-.723-1.444-.046-1.196.97-1.882 1.304-2.108 1.199-.81 3.881-1.971 5.277-2.53 1.042-.417 1.735-.643 2.41-.643 1.134 0 2.314.77 2.396 2.491.079 1.687-.809 4.965-2.963 6.646-1.533 1.196-3.377 1.375-4.34 1.375zm4.907-10.002c-.592 0-1.237.213-2.221.606-1.377.551-4.018 1.694-5.182 2.479-.275.186-1.115.752-1.079 1.666.019.479.247.87.698 1.197l.196.142-.131.203c-.373.575-.496 1.077-.387 1.578.102.471.414.875.879 1.14.737.418 1.77.481 2.319.481.897 0 2.614-.165 4.027-1.268 2.012-1.57 2.84-4.639 2.767-6.22-.069-1.478-1.019-2.004-1.886-2.004zm-4.907 8.585c-.771 0-1.471-.136-1.871-.363-.245-.139-.393-.321-.44-.542-.091-.422.212-.838.479-1.205.1-.137.195-.266.255-.382.13-.254.083-.382-.463-.693-.303-.171-.613-.348-.626-.684-.011-.282.198-.553.679-.878.96-.647 3.271-1.692 5.012-2.389.856-.343 1.439-.541 1.884-.541.615 0 .944.383.979 1.14.066 1.41-.757 4.166-2.418 5.462-.878.683-2.142 1.075-3.47 1.075zm4.907-7.168c-.36 0-.916.193-1.694.505-1.771.708-4.028 1.739-4.916 2.338-.446.302-.455.434-.455.436.015.06.234.184.339.244.399.228 1.088.619.694 1.386-.07.136-.18.29-.296.45-.194.267-.436.599-.393.797.006.027.024.109.194.206.317.181.953.297 1.619.297 1.217 0 2.367-.353 3.155-.968 1.579-1.232 2.275-3.893 2.222-5.036-.027-.605-.237-.655-.469-.655z"></path><path d="M49.812 96.999h-.001a46.802 46.802 0 0 1-30.705-11.491C-.376 68.567-2.444 38.934 14.498 19.452a46.824 46.824 0 0 1 66.056-4.608c9.438 8.206 15.114 19.597 15.985 32.073.87 12.477-3.17 24.545-11.377 33.983a46.83 46.83 0 0 1-35.35 16.099zm.037-90.811a43.99 43.99 0 0 0-33.212 15.125C.721 39.615 2.663 67.454 20.966 83.369a43.987 43.987 0 0 0 62.056-4.331c7.71-8.866 11.505-20.204 10.688-31.925-.818-11.721-6.151-22.421-15.018-30.131A43.956 43.956 0 0 0 49.849 6.188z"></path></g><!----></svg>