<svg data-v-423bf9ae="" xmlns="http://www.w3.org/2000/svg" viewBox="0 0 59.98865910079868 60" class="icon"><!----><!----><!----><!----><g data-v-423bf9ae="" id="cf94f394-a200-49ab-bfd3-c4ff409bc1bb" transform="matrix(0.6407216983257265,0,0,0.6407216983257265,-1.9403876226022696,-2.1493670689912605)" stroke="none" fill="black"><path d="M67 19.989c.376 0 .75.021 1.111.062 3.413.389 6.84 2.737 9.649 6.609 3.147 4.338 4.833 9.468 4.101 12.475-.559 2.294-2.628 3.714-4.225 3.714-.331 0-.627-.061-.88-.183-1.336-.64-2.48-3.28-3.489-5.609-.451-1.04-.916-2.115-1.424-3.086-1.906-3.646-4.252-5.615-6.736-7.699l-.185-.155c-1.044-.876-3.816-3.204-3.771-4.058.23-.6 2.565-2.07 5.849-2.07m0-2.126c-3.651 0-7.133 1.607-7.834 3.436-.788 2.054 1.932 4.386 4.389 6.448s4.649 3.853 6.404 7.211 3.072 8.282 5.878 9.627a4.15 4.15 0 0 0 1.799.392c2.574 0 5.497-2.082 6.29-5.337.988-4.056-1.33-9.933-4.445-14.227-3.115-4.294-7.026-7.005-11.129-7.473-.45-.052-.903-.077-1.352-.077zM85.402 46.223c.452 0 .694.25.725.897.058 1.245-.667 3.959-2.321 5.249-.966.753-2.248 1.021-3.312 1.021-.758 0-1.404-.136-1.746-.33-.82-.465.124-1.263.395-1.79.271-.528-.132-.786-.564-1.031-.432-.246-.893-.479.07-1.13.963-.65 3.35-1.718 4.963-2.363.776-.31 1.373-.523 1.79-.523m0-1.417c-.635 0-1.304.22-2.316.625-1.386.555-4.047 1.706-5.23 2.504-.305.206-1.232.832-1.191 1.887.027.7.442 1.132.803 1.394-.29.448-.576 1.058-.422 1.77.117.543.473 1.007 1.003 1.308.788.448 1.87.514 2.445.514.93 0 2.71-.172 4.183-1.321 2.083-1.625 2.941-4.799 2.865-6.433-.077-1.66-1.201-2.248-2.14-2.248z"></path><path d="M80.495 55.063c-.6 0-1.731-.071-2.571-.547-.594-.337-.994-.861-1.126-1.476-.124-.572-.013-1.151.336-1.764-.458-.395-.701-.88-.723-1.444-.046-1.196.97-1.882 1.304-2.108 1.199-.81 3.881-1.971 5.277-2.53 1.042-.417 1.735-.643 2.41-.643 1.134 0 2.314.77 2.396 2.491.079 1.687-.809 4.965-2.963 6.646-1.533 1.196-3.377 1.375-4.34 1.375zm4.907-10.002c-.592 0-1.237.213-2.221.606-1.377.551-4.018 1.694-5.182 2.479-.275.186-1.115.752-1.079 1.666.019.479.247.87.698 1.197l.196.142-.131.203c-.373.575-.496 1.077-.387 1.578.102.471.414.875.879 1.14.737.418 1.77.481 2.319.481.897 0 2.614-.165 4.027-1.268 2.012-1.57 2.84-4.639 2.767-6.22-.069-1.478-1.019-2.004-1.886-2.004zm-4.907 8.585c-.771 0-1.471-.136-1.871-.363-.245-.139-.393-.321-.44-.542-.091-.422.212-.838.479-1.205.1-.137.195-.266.255-.382.13-.254.083-.382-.463-.693-.303-.171-.613-.348-.626-.684-.011-.282.198-.553.679-.878.96-.647 3.271-1.692 5.012-2.389.856-.343 1.439-.541 1.884-.541.615 0 .944.383.979 1.14.066 1.41-.757 4.166-2.418 5.462-.878.683-2.142 1.075-3.47 1.075zm4.907-7.168c-.36 0-.916.193-1.694.505-1.771.708-4.028 1.739-4.916 2.338-.446.302-.455.434-.455.436.015.06.234.184.339.244.399.228 1.088.619.694 1.386-.07.136-.18.29-.296.45-.194.267-.436.599-.393.797.006.027.024.109.194.206.317.181.953.297 1.619.297 1.217 0 2.367-.353 3.155-.968 1.579-1.232 2.275-3.893 2.222-5.036-.027-.605-.237-.655-.469-.655z"></path><path d="M49.812 96.999h-.001a46.802 46.802 0 0 1-30.705-11.491C-.376 68.567-2.444 38.934 14.498 19.452a46.824 46.824 0 0 1 66.056-4.608c9.438 8.206 15.114 19.597 15.985 32.073.87 12.477-3.17 24.545-11.377 33.983a46.83 46.83 0 0 1-35.35 16.099zm.037-90.811a43.99 43.99 0 0 0-33.212 15.125C.721 39.615 2.663 67.454 20.966 83.369a43.987 43.987 0 0 0 62.056-4.331c7.71-8.866 11.505-20.204 10.688-31.925-.818-11.721-6.151-22.421-15.018-30.131A43.956 43.956 0 0 0 49.849 6.188z"></path></g><!----></svg>